# xmcd
#
# Track frame offsets:
#        187
#        20377
#        40672
#        53780
#        61740
#        74932
#        90825
#        104145
#        119250
#        135955
#        152115
#        167630
#
# Disc length: 2424 seconds
#
# Revision: 3
# Processed by: cddbd v1.5.1PL0 Copyright (c) Steve Scherf et al.
# Submitted via: ExactAudioCopy v0.95a5
#
DISCID=9a09760c
DTITLE=Let's Active - Every Dog Has His Day
DYEAR=1988
DGENRE=Rock
TTITLE0=Every Dog Has His Day
TTITLE1=Horizon
TTITLE2=Sweepstakes Winner
TTITLE3=Orpheus In Hades Lounge
TTITLE4=Mr. Fool
TTITLE5=Ten Layers Down
TTITLE6=Too Bad
TTITLE7=Night Train
TTITLE8=Forty Years
TTITLE9=Bad Machinery
TTITLE10=I Feel Funny
TTITLE11=Terminate
EXTD=YEAR: 1988 ID3G: 17
EXTT0=
EXTT1=
EXTT2=
EXTT3=
EXTT4=
EXTT5=
EXTT6=
EXTT7=
EXTT8=
EXTT9=
EXTT10=
EXTT11=
PLAYORDER=
